<svg width="64" height="64" viewBox="0 0 64 64" fill="none" xmlns="http://www.w3.org/2000/svg">
  <!-- Background Circle -->
  <circle cx="32" cy="32" r="30" fill="#4a7c59" stroke="#d4af37" stroke-width="2"/>
  
  <!-- Islamic Scholar Figure -->
  <!-- Head -->
  <circle cx="32" cy="20" r="8" fill="#8b4513"/>
  
  <!-- Turban -->
  <path d="M24 18 C24 12, 40 12, 40 18 C40 20, 38 22, 36 22 C36 20, 28 20, 28 22 C26 22, 24 20, 24 18 Z" fill="#f8f9fa"/>
  
  <!-- Beard -->
  <path d="M28 26 C28 28, 30 30, 32 30 C34 30, 36 28, 36 26" fill="#8b4513"/>
  
  <!-- Body -->
  <rect x="28" y="28" width="8" height="16" fill="#4a7c59"/>
  
  <!-- Arms -->
  <rect x="24" y="30" width="4" height="12" fill="#8b4513"/>
  <rect x="36" y="30" width="4" height="12" fill="#8b4513"/>
  
  <!-- Crescent Moon -->
  <path d="M48 12 C50 12, 52 14, 52 16 C52 18, 50 20, 48 20 C46 20, 44 18, 44 16 C44 14, 46 12, 48 12 Z" fill="#d4af37"/>
  <circle cx="46" cy="16" r="2" fill="#f8f9fa"/>
  
  <!-- Star -->
  <path d="M16 12 L18 18 L24 18 L19 22 L21 28 L16 24 L11 28 L13 22 L8 18 L14 18 Z" fill="#d4af37"/>
  
  <!-- Islamic Pattern -->
  <circle cx="32" cy="32" r="2" fill="#d4af37"/>
  <circle cx="28" cy="28" r="1" fill="#d4af37"/>
  <circle cx="36" cy="28" r="1" fill="#d4af37"/>
  <circle cx="28" cy="36" r="1" fill="#d4af37"/>
  <circle cx="36" cy="36" r="1" fill="#d4af37"/>
</svg>
